# xmcd
#
# Track frame offsets:
#	150
#	7402
#	19717
#	29210
#	43789
#	54084
#	61543
#	70398
#	82329
#	99548
#
# Disc length: 1490 seconds
#
# Revision: 1
# Processed by: cddbd v1.5.2PL0 Copyright (c) Steve Scherf et al.
# Submitted via: audiograbber 1.83.01
#
DISCID=8705d00a
DTITLE=Various Artist - Silver Spurs Classic Country Hits Disc 1
DYEAR=1900
DGENRE=Country
TTITLE0=Loretta Lynn - Me and Bobby McGee
TTITLE1=Freddy Fender (Live) - Wasted Days and Wasted Nights
TTITLE2=Charley Pride (Live) - Kiss An Angel Good Morning
TTITLE3=B.J. Thomas - I Just Can't Help Believing
TTITLE4=Brenda Lee - I'm Sorry
TTITLE5=Buck Owens - That Ain't Right Baby
TTITLE6=Carl Perkins - This Old House
TTITLE7=Patsy Cline - Today, Tomorrow, and Forever
TTITLE8=Lynn Anderson - Midnight Train to Georgia
TTITLE9=Porter Wagoner - Green, Green Grass of Home
EXTD=3-disc set
EXTT0=
EXTT1=
EXTT2=
EXTT3=
EXTT4=
EXTT5=
EXTT6=
EXTT7=
EXTT8=
EXTT9=
PLAYORDER=
